<svg width="24" height="29" viewBox="0 0 24 29" fill="none" xmlns="http://www.w3.org/2000/svg">
<path id="Vector" d="M0.905396 25.0914L2.93517 21.2222C5.28543 22.8343 8.91766 24.0166 12.4431 24.0166C17.0367 24.0166 18.8529 22.6194 18.8529 20.2549C18.8529 14.1286 1.6532 19.395 1.6532 8.53977C1.6532 3.59579 6.03325 0.37146 12.9772 0.37146C16.5026 0.37146 20.5621 1.33876 22.9124 2.84345L20.7758 6.71265C18.3187 5.10048 15.648 4.5631 12.9772 4.5631C8.704 4.5631 6.5674 6.17526 6.5674 8.32482C6.5674 14.7735 23.767 9.50708 23.767 20.1474C23.767 25.0914 19.2802 28.2082 12.0157 28.2082C7.6357 28.3157 3.14883 26.9185 0.905396 25.0914Z" fill="white"/>
</svg>
